<svg width="250" height="150" xmlns="http://www.w3.org/2000/svg">
    <rect width="100%" height="100%" fill="#3e3d9b" />
    <g opacity="0.7">
        <g transform="translate(77, 27) scale(4)">
            <path fill="#ffffff" d="M12.5,2C10.57,2 9,3.57 9,5.5V6H5.5C3.57,6 2,7.57 2,9.5V12.5H6V12C6,10.33 7.33,9 9,9H9.5V5.5C9.5,4.12 10.62,3 12,3H12.5C13.88,3 15,4.12 15,5.5V9.5H18V9C18,7.33 19.33,6 21,6H22V5.5C22,3.57 20.43,2 18.5,2H12.5M6,13H2V14.5C2,16.43 3.57,18 5.5,18H6V22H9.5V18H10C11.67,18 13,16.67 13,15V14.5H16.5C18.43,14.5 20,12.93 20,11V10H15V14.5C15,15.88 13.88,17 12.5,17H9.5C8.12,17 7,15.88 7,14.5V13H6Z" />
        </g>
    </g>
</svg>
