<svg width="250" height="150" xmlns="http://www.w3.org/2000/svg">
    <rect width="100%" height="100%" fill="#b718f1" />
    <g opacity="0.7">
        <g transform="translate(77, 27) scale(4)">
            <path fill="#000000" d="M7,22L9.5,19.5L6.5,18.5L7,15.5L4,15L3,17.5L5,19.5L7,22M12,20C10.9,20 10,19.1 10,18C10,16.9 10.9,16 12,16C13.1,16 14,16.9 14,18C14,19.1 13.1,20 12,20M17,22L19.5,19.5L17,15.5L18.5,18.5L21,17.5L20,15L17,22M13,2.4L11,4L7.1,3.2L5.8,5.8L8.2,7.8L7.2,11.2L10,13L12,11.5L14,13L16.8,11.2L15.8,7.8L18.2,5.8L16.9,3.2L13,2.4M12,6C10.9,6 10,6.9 10,8C10,9.1 10.9,10 12,10C13.1,10 14,9.1 14,8C14,6.9 13.1,6 12,6Z"/>
        </g>
    </g>
</svg>
