<svg width="250" height="150" xmlns="http://www.w3.org/2000/svg">
    <rect width="100%" height="100%" fill="#3e3d9b" />
    <g opacity="0.7">
        <g transform="translate(77, 27) scale(4)">
            <path fill="#ffffff" d="M12,7A3,3 0 0,1 15,10A3,3 0 0,1 12,13A3,3 0 0,1 9,10A3,3 0 0,1 12,7M12,14.9C15.5,14.9 18.4,16.4 18.4,18.3V20H5.6V18.3C5.6,16.4 8.5,14.9 12,14.9Z M4,12H2 M22,12H20 M12,4V2 M12,22V20 M6.34,6.34L4.93,4.93 M19.07,19.07L17.66,17.66 M6.34,17.66L4.93,19.07 M19.07,4.93L17.66,6.34" />
        </g>
    </g>
</svg>
