<svg width="250" height="150" xmlns="http://www.w3.org/2000/svg">
    <rect width="100%" height="100%" fill="#0a895d" />
    <g opacity="0.7">
        <g transform="translate(77, 27) scale(4)">
            <path fill="#ffffff" d="M12,6A3,3 0 0,1 15,9C15,10.65 13.65,12 12,12C10.35,12 9,10.65 9,9A3,3 0 0,1 12,6M7,13A3,3 0 0,1 10,16C10,17.65 8.65,19 7,19C5.35,19 4,17.65 4,16A3,3 0 0,1 7,13M17,13A3,3 0 0,1 20,16C20,17.65 18.65,19 17,19C15.35,19 14,17.65 14,16A3,3 0 0,1 17,13M12,12.5L15.3,15.1L14,16L12,14.5L10,16L8.7,15.1L12,12.5Z"/>
        </g>
    </g>
</svg>
