<svg width="250" height="150" xmlns="http://www.w3.org/2000/svg">
    <rect width="100%" height="100%" fill="#f00e9d" />
    <g opacity="0.7">
        <g transform="translate(77, 27) scale(4)">
            <path fill="#000000" d="M17,18H7C5.9,18 5,17.1 5,16V11L7.6,13L9.5,11.5L11,13.5L14,11L16.5,13.5L19,11V16C19,17.1 18.1,18 17,18M13.4,8.8C13.8,8.9 14,9.2 14,9.5C14,9.8 13.8,10.1 13.4,10.2L11.4,9.4C11.1,8.6 10.5,8 9.8,7.6L10.6,5.6C11.4,5.9 12,6.5 12.4,7.2L13.4,8.8Z" />
        </g>
    </g>
</svg>
