<svg width="250" height="150" xmlns="http://www.w3.org/2000/svg">
    <rect width="100%" height="100%" fill="#f00e9d" />
    <g opacity="0.7">
        <g transform="translate(77, 27) scale(4)">
            <path fill="#000000" d="M19,3H5C3.89,3 3,3.89 3,5V19C3,20.11 3.9,21 5,21H19C20.11,21 21,20.11 21,19V5C21,3.89 20.11,3 19,3M8,16C6.9,16 6,15.1 6,14C6,12.9 6.9,12 8,12C9.1,12 10,12.9 10,14C10,15.1 9.1,16 8,16M12,12C10.9,12 10,11.1 10,10C10,8.9 10.9,8 12,8C13.1,8 14,8.9 14,10C14,11.1 13.1,12 12,12M16,16C14.9,16 14,15.1 14,14C14,12.9 14.9,12 16,12C17.1,12 18,12.9 18,14C18,15.1 17.1,16 16,16M8,10C6.9,10 6,9.1 6,8C6,6.9 6.9,6 8,6C9.1,6 10,6.9 10,8C10,9.1 9.1,10 8,10M16,10C14.9,10 14,9.1 14,8C14,6.9 14.9,6 16,6C17.1,6 18,6.9 18,8C18,9.1 17.1,10 16,10Z" />
        </g>
    </g>
</svg>
