<svg width="250" height="150" xmlns="http://www.w3.org/2000/svg">
    <rect width="100%" height="100%" fill="#f00e9d" />
    <g opacity="0.7">
        <g transform="translate(77, 27) scale(4)">
            <path fill="#000000" d="M12,2A3.5,3.5 0 0,0 8.5,5.5C8.5,6.07 8.62,6.61 8.83,7.1C6.27,7.8 5,9.45 5,11.5C5,13.42 6.03,15.03 7.5,15.78V18.5C7.5,19.88 8.62,21 10,21H11V22H13V21H14C15.38,21 16.5,19.88 16.5,18.5V15.78C17.97,15.03 19,13.42 19,11.5C19,9.45 17.73,7.8 15.17,7.1C15.38,6.61 15.5,6.07 15.5,5.5A3.5,3.5 0 0,0 12,2M12,4A1.5,1.5 0 0,1 13.5,5.5C13.5,6.33 12.83,7 12,7C11.17,7 10.5,6.33 10.5,5.5A1.5,1.5 0 0,1 12,4M7,11.5C7,10.12 8.12,9 9.5,9H14.5C15.88,9 17,10.12 17,11.5C17,12.88 15.88,14 14.5,14H9.5C8.12,14 7,12.88 7,11.5M9.5,15.5H14.5V18.5A1.5,1.5 0 0,1 13,20H11A1.5,1.5 0 0,1 9.5,18.5V15.5Z" />
        </g>
    </g>
</svg>
