<svg width="250" height="150" xmlns="http://www.w3.org/2000/svg">
    <rect width="100%" height="100%" fill="#57d313" />
    <g opacity="0.7">
        <g transform="translate(77, 27) scale(4)">
            <path fill="#ffffff" d="M11.5,2.5L15.5,6.5L14.09,7.91L12,5.83V10H18.17L16.09,7.91L17.5,6.5L21.5,10.5L17.5,14.5L16.09,13.09L18.17,11H12V18.17L14.09,16.09L15.5,17.5L11.5,21.5L7.5,17.5L8.91,16.09L11,18.17V13H5.83L7.91,14.09L6.5,15.5L2.5,11.5L6.5,7.5L7.91,8.91L5.83,11H11V5.83L8.91,7.91L7.5,6.5L11.5,2.5Z" />
        </g>
    </g>
</svg>
