<svg width="250" height="150" xmlns="http://www.w3.org/2000/svg">
    <rect width="100%" height="100%" fill="#b718f1" />
    <g opacity="0.7">
        <g transform="translate(77, 27) scale(4)">
            <path fill="#000000" d="M12,2C6.48,2 2,6.48 2,12C2,17.52 6.48,22 12,22C17.52,22 22,17.52 22,12C22,6.48 17.52,2 12,2M12,4C16.42,4 20,7.58 20,12C20,16.42 16.42,20 12,20C7.58,20 4,16.42 4,12C4,7.58 7.58,4 12,4M12,9A3,3 0 0,0 9,12A3,3 0 0,0 12,15A3,3 0 0,0 15,12A3,3 0 0,0 12,9M12,11A1,1 0 0,1 13,12A1,1 0 0,1 12,13A1,1 0 0,1 11,12A1,1 0 0,1 12,11Z" />
        </g>
    </g>
</svg>
