<svg width="250" height="150" xmlns="http://www.w3.org/2000/svg">
    <rect width="100%" height="100%" fill="#f00e9d" />
    <g opacity="0.7">
        <g transform="translate(77, 27) scale(4)">
            <path fill="#000000" d="M11,17V15H7V17H5V14A1,1 0 0,1 6,13H11V11H9V9H12L13,8L14,9V11H12V13H17A1,1 0 0,1 18,14V17H16V15H12V17H11M14.5,6A1.5,1.5 0 0,0 16,4.5A1.5,1.5 0 0,0 14.5,3A1.5,1.5 0 0,0 13,4.5A1.5,1.5 0 0,0 14.5,6M20.5,12A1.5,1.5 0 0,0 22,10.5A1.5,1.5 0 0,0 20.5,9A1.5,1.5 0 0,0 19,10.5A1.5,1.5 0 0,0 20.5,12M17.5,8A1.5,1.5 0 0,0 19,6.5A1.5,1.5 0 0,0 17.5,5A1.5,1.5 0 0,0 16,6.5A1.5,1.5 0 0,0 17.5,8M9.5,6A1.5,1.5 0 0,0 11,4.5A1.5,1.5 0 0,0 9.5,3A1.5,1.5 0 0,0 8,4.5A1.5,1.5 0 0,0 9.5,6M6.5,8A1.5,1.5 0 0,0 8,6.5A1.5,1.5 0 0,0 6.5,5A1.5,1.5 0 0,0 5,6.5A1.5,1.5 0 0,0 6.5,8M3.5,12A1.5,1.5 0 0,0 5,10.5A1.5,1.5 0 0,0 3.5,9A1.5,1.5 0 0,0 2,10.5A1.5,1.5 0 0,0 3.5,12Z" />
        </g>
    </g>
</svg>
