<svg width="250" height="150" xmlns="http://www.w3.org/2000/svg">
    <rect width="100%" height="100%" fill="#652f55" />
    <g opacity="0.7">
        <g transform="translate(77, 27) scale(4)">
            <path fill="#ffffff" d="M21.09,14.41C21.09,16.5 19.4,18.19 17.31,18.19C15.22,18.19 13.53,16.5 13.53,14.41C13.53,12.32 15.22,10.63 17.31,10.63C19.4,10.63 21.09,12.32 21.09,14.41M17.31,12.12C16.14,12.12 15.17,13.17 15.17,14.41C15.17,15.65 16.14,16.7 17.31,16.7C18.48,16.7 19.45,15.65 19.45,14.41C19.45,13.17 18.48,12.12 17.31,12.12M12,4V18.19C11.53,18.66 10.86,19 10.12,19C8.61,19 7.37,17.76 7.37,16.25C7.37,14.74 8.61,13.5 10.12,13.5C10.86,13.5 11.53,13.84 12,14.31V4H4C2.9,4 2,4.9 2,6V20C2,21.1 2.9,22 4,22H12V21C11.69,20.04 12,19.23 12,18.19V17H10.5C9.8,17 9,16.42 9,15.75C9,15.08 9.8,14.5 10.5,14.5H12V13C11.69,12.04 12,11.23 12,10.19V6H20V8.68C20.93,9.45 21.5,10.59 21.5,11.84C22.08,11.96 22.62,12.21 23,12.58V6C23,4.9 22.1,4 21,4H12Z" />
        </g>
    </g>
</svg>
