<svg width="250" height="150" xmlns="http://www.w3.org/2000/svg">
    <rect width="100%" height="100%" fill="#f00e9d" />
    <g opacity="0.7">
        <g transform="translate(77, 27) scale(4)">
            <path fill="#000000" d="M16.16 8.5C16.16 5.84 14.3 2.84 12 2C9.7 2.84 7.84 5.84 7.84 8.5C7.84 10.42 8.78 12.3 10.33 13.5L4 20H20L13.67 13.5C15.22 12.3 16.16 10.42 16.16 8.5M12 12.5C10.74 12.5 9.84 11.22 9.84 10C9.84 8.25 11.25 7.03 12 6.5C12.75 7.03 14.16 8.25 14.16 10C14.16 11.22 13.26 12.5 12 12.5Z" />
        </g>
    </g>
</svg>
