<svg width="250" height="150" xmlns="http://www.w3.org/2000/svg">
    <rect width="100%" height="100%" fill="#57d313" />
    <g opacity="0.7">
        <g transform="translate(77, 27) scale(4)">
            <path fill="#ffffff" d="M12,2A9,9 0 0,0 3,11V22H21V11A9,9 0 0,0 12,2M8.5,12A1.5,1.5 0 0,1 10,13.5A1.5,1.5 0 0,1 8.5,15A1.5,1.5 0 0,1 7,13.5A1.5,1.5 0 0,1 8.5,12M15.5,12A1.5,1.5 0 0,1 17,13.5A1.5,1.5 0 0,1 15.5,15A1.5,1.5 0 0,1 14,13.5A1.5,1.5 0 0,1 15.5,12M12,16C10.13,16 8.55,17.13 8.05,18.5H15.95C15.45,17.13 13.87,16 12,16Z" />
        </g>
    </g>
</svg>
