<svg width="250" height="150" xmlns="http://www.w3.org/2000/svg">
    <rect width="100%" height="100%" fill="#b718f1" />
    <g opacity="0.7">
        <g transform="translate(77, 27) scale(4)">
            <path fill="#000000" d="M12,6A3,3 0 0,0 9,9A3,3 0 0,0 12,12A3,3 0 0,0 15,9A3,3 0 0,0 12,6M6,8A2,2 0 0,0 4,10A2,2 0 0,0 6,12A2,2 0 0,0 8,10A2,2 0 0,0 6,8M18,8A2,2 0 0,0 16,10A2,2 0 0,0 18,12A2,2 0 0,0 20,10A2,2 0 0,0 18,8M12,14C10,14 6,15 6,17V19H18V17C18,15 14,14 12,14M6,14C5.75,14 5.5,14 5.25,14.05C4.5,14.25 4,14.9 4,15.7V17H2V15.7C2,14.5 3.17,13.55 4.5,13.2L6,14M18,14L19.5,13.2C20.83,13.55 22,14.5 22,15.7V17H20V15.7C20,14.9 19.5,14.25 18.75,14.05C18.5,14 18.25,14 18,14Z" />
        </g>
    </g>
</svg>
