<svg width="250" height="150" xmlns="http://www.w3.org/2000/svg">
    <rect width="100%" height="100%" fill="#b718f1" />
    <g opacity="0.7">
        <g transform="translate(77, 27) scale(4)">
            <path fill="#000000" d="M22,15.5V12.5L20.45,13.8L22,15.5M19.3,13.1L18.6,12.4L19.3,11.7L21.4,13.8L19.3,13.1M13,2V4H10V2H13M12,9A3,3 0 0,1 9,12A3,3 0 0,1 12,15A3,3 0 0,1 15,12A3,3 0 0,1 12,9M19.7,7.6L18.8,9.2C19.6,10 20,11 20,12.1C20,14.1 18.6,15.8 16.7,16.1C16.2,18.4 14.3,20.1 12,20.1C9.6,20.1 7.8,18.3 7.3,16C5.2,15.6 4,13.8 4,12C4,10.2 5,8.6 6.5,7.8L5.4,6C3.4,7.3 2,9.5 2,12C2,15.3 4.7,18 8,18.1V22H16V18.1C19.3,18 22,15.3 22,12C22,10.2 21.2,8.6 19.7,7.6Z" />
        </g>
    </g>
</svg>
