<svg width="250" height="150" xmlns="http://www.w3.org/2000/svg">
    <rect width="100%" height="100%" fill="#f00e9d" />
    <g opacity="0.7">
        <g transform="translate(77, 27) scale(4)">
            <path fill="#000000" d="M12,2A9,9 0 0,0 3,11V22H21V11A9,9 0 0,0 12,2M12,4A7,7 0 0,1 19,11H5A7,7 0 0,1 12,4M8.5,12A1.5,1.5 0 0,1 10,13.5A1.5,1.5 0 0,1 8.5,15A1.5,1.5 0 0,1 7,13.5A1.5,1.5 0 0,1 8.5,12M15.5,12A1.5,1.5 0 0,1 17,13.5A1.5,1.5 0 0,1 15.5,15A1.5,1.5 0 0,1 14,13.5A1.5,1.5 0 0,1 15.5,12M12,16C10.13,16 8.55,17.13 8.05,18.5H15.95C15.45,17.13 13.87,16 12,16M5,2V5H2V2H5M19,2V5H22V2H19M12,6L10.5,9H13.5L12,6Z" />
        </g>
    </g>
</svg>
