<svg width="250" height="150" xmlns="http://www.w3.org/2000/svg">
    <rect width="100%" height="100%" fill="#f00e9d" />
    <g opacity="0.7">
        <g transform="translate(77, 27) scale(4)">
            <path fill="#000000" d="M18,9H15V6C15,4.34 13.66,3 12,3C10.34,3 9,4.34 9,6V9H6C4.34,9 3,10.34 3,12V19C3,20.66 4.34,22 6,22H18C19.66,22 21,20.66 21,19V12C21,10.34 19.66,9 18,9M11,6C11,5.45 11.45,5 12,5C12.55,5 13,5.45 13,6V9H11V6M13,16H11V18H9V16H7V14H9V12H11V14H13V16Z" />
        </g>
    </g>
</svg>
