<svg width="250" height="150" xmlns="http://www.w3.org/2000/svg">
    <rect width="100%" height="100%" fill="#f00e9d" />
    <g opacity="0.7">
        <g transform="translate(77, 27) scale(4)">
            <path fill="#000000" d="M18.9,12.28L15.6,15.6C15.4,15.78 15.2,15.86 15,15.86C14.8,15.86 14.6,15.78 14.4,15.6L12,13.2L9.6,15.6C9.4,15.78 9.2,15.86 9,15.86C8.8,15.86 8.6,15.78 8.4,15.6L5.1,12.28C4.7,11.88 4.7,11.28 5.1,10.88L6.2,9.78L9,12.6L10.4,11.2L9,9.78L10.1,8.68L7.9,6.5L6.5,7.9L5.8,7.2L2.8,10.2C1.9,11.1 1.9,12.5 2.8,13.4L8.4,19L12,15.4L15.6,19L21.2,13.4C22.1,12.5 22.1,11.1 21.2,10.2L18.2,7.2L17.5,7.9L16.1,6.5L13.9,8.68L15,9.78L13.6,11.2L15,12.6L17.8,9.78L18.9,10.88C19.3,11.28 19.3,11.88 18.9,12.28Z" />
        </g>
    </g>
</svg>
