<svg width="250" height="150" xmlns="http://www.w3.org/2000/svg">
    <rect width="100%" height="100%" fill="#f00e9d" />
    <g opacity="0.7">
        <g transform="translate(77, 27) scale(4)">
            <path fill="#000000" d="M12,2A10,10 0 0,0 2,12A10,10 0 0,0 12,22A10,10 0 0,0 22,12A10,10 0 0,0 12,2M11,19.93C7.05,19.44 4,16.08 4,12C4,11.38 4.08,10.78 4.21,10.21L9,15V16A1,1 0 0,0 10,17H12A1,1 0 0,0 13,16V15L18.79,10.21C19.92,10.78 20,11.38 20,12C20,16.08 16.95,19.44 13,19.93V18A1,1 0 0,0 12,17H11V19.93M12.5,9.5L14.5,11.5L12.5,13.5L10.5,11.5L12.5,9.5M18.93,8.93C18.44,7.05 16.92,5.56 15,5.07V6A1,1 0 0,0 14,7H10A1,1 0 0,0 9,6V5.07C7.08,5.56 5.56,7.05 5.07,8.93H6A1,1 0 0,0 7,10V12A1,1 0 0,0 8,13H9.25L7.75,14.5L9.16,15.91L11,14V12A1,1 0 0,0 10,11H8V9A1,1 0 0,0 7,8H5.07C5.56,6.08 7.05,4.56 8.93,4.07V5A1,1 0 0,0 10,6H14A1,1 0 0,0 15,5V4.07C16.92,4.56 18.44,6.08 18.93,7H17A1,1 0 0,0 16,8V10H14A1,1 0 0,0 13,11V12.91L15.91,15.82L14.5,17.23L13,15.75V14H15A1,1 0 0,0 16,13V11A1,1 0 0,0 15,10H17.07L18.93,8.93Z" />
        </g>
    </g>
</svg>
