<svg width="250" height="150" xmlns="http://www.w3.org/2000/svg">
    <rect width="100%" height="100%" fill="#3e3d9b" />
    <g opacity="0.7">
        <g transform="translate(77, 27) scale(4)">
            <path fill="#ffffff" d="M20,2H4C2.9,2 2,2.9 2,4V20C2,21.1 2.9,22 4,22H20C21.1,22 22,21.1 22,20V4C22,2.9 21.1,2 20,2M20,20H4V4H20V20M8,12C9.1,12 10,11.1 10,10C10,8.9 9.1,8 8,8C6.9,8 6,8.9 6,10C6,11.1 6.9,12 8,12M14,16H10C10,14.67 12,14 12,14C12,14 14,14.67 14,16M13,10H20V11.5H13V10M13,13H20V14.5H13V13Z" />
        </g>
    </g>
</svg>
