<svg width="250" height="150" xmlns="http://www.w3.org/2000/svg">
    <rect width="100%" height="100%" fill="#5f65b9" />
    <g opacity="0.7">
        <g transform="translate(77, 27) scale(4)">
            <path fill="#ffffff" d="M20,6C21.1,6 22,6.9 22,8V19C22,20.1 21.1,21 20,21H4C2.9,21 2,20.1 2,19V8C2,6.9 2.9,6 4,6H8V4C8,2.9 8.9,2 10,2H14C15.1,2 16,2.9 16,4V6H20M14,6V4H10V6H14M12,14C10.6,14 9.5,12.9 9.5,11.5C9.5,10.1 10.6,9 12,9C13.4,9 14.5,10.1 14.5,11.5C14.5,12.9 13.4,14 12,14M16,18C16,16.5 13.5,15.25 12,15.25C10.5,15.25 8,16.5 8,18V19H16V18Z" />
        </g>
    </g>
</svg>
