<svg width="250" height="150" xmlns="http://www.w3.org/2000/svg">
    <rect width="100%" height="100%" fill="#57d313" />
    <g opacity="0.7">
        <g transform="translate(77, 27) scale(4)">
            <path fill="#ffffff" d="M12,8A4,4 0 0,1 16,12A4,4 0 0,1 12,16A4,4 0 0,1 8,12A4,4 0 0,1 12,8M12,10A2,2 0 0,0 10,12A2,2 0 0,0 12,14A2,2 0 0,0 14,12A2,2 0 0,0 12,10M12,2L14.3,2.5L15.1,3.2L15.9,2.8L17.4,3.4L17.2,5L18.2,5.5L18.5,7L19.6,7.5L19.8,9L21.2,9.9L20.8,11.2L21.7,12.5L20.9,13.8L21.1,15.2L20.1,16.2L19.3,16.1L18.8,17.2L18.1,18.1L16.9,18.1L16.2,19.2L14.9,19.3L13.9,20.4L12.7,20.3L11.5,21.2L10,21.1L8.5,20.3L7.7,21.1L6.6,20.1L6.2,18.6L5.3,18.4L4.5,17.4L3.4,17.1L3.3,15.7L2,14.7L2.1,13.2L3.2,12.3L2.8,10.8L4.1,9.9L4.4,8.4L3.8,7.3L4.9,6.2L6,6.6L6.9,5.5L6.4,4L7.8,3.2L9.2,3.8L10,2.9L10.7,2.1L12,2Z" /><path fill="none" stroke="#ffffff" stroke-width="0.7" stroke-linecap="round" d="M 17.5 6.5 L 6.5 17.5" />
        </g>
    </g>
</svg>
