<svg width="250" height="150" xmlns="http://www.w3.org/2000/svg">
    <rect width="100%" height="100%" fill="#b718f1" />
    <g opacity="0.7">
        <g transform="translate(77, 27) scale(4)">
            <path fill="#000000" d="M9,22A1,1 0 0,1 8,21V19H5A1,1 0 0,1 4,18V13A1,1 0 0,1 5,12H6.34L6.34,10C6.34,6.68 8.68,4.34 12,4.34C15.32,4.34 17.66,6.68 17.66,10L17.66,12H19A1,1 0 0,1 20,13V18A1,1 0 0,1 19,19H16V21A1,1 0 0,1 15,22H9M12,2A7,7 0 0,0 5,9V11H19V9A7,7 0 0,0 12,2Z" />
        </g>
    </g>
</svg>
