<svg width="250" height="150" xmlns="http://www.w3.org/2000/svg">
    <rect width="100%" height="100%" fill="#f00e9d" />
    <g opacity="0.7">
        <g transform="translate(77, 27) scale(4)">
            <path fill="#000000" d="M12,2A3,3 0 0,0 9,5A3,3 0 0,0 12,8A3,3 0 0,0 15,5A3,3 0 0,0 12,2M12,9C11.5,9 11,8.9 10.5,8.82L5.5,10.5L6,11.5L9.5,10.22C9.5,11.16 9.89,12 10.5,12.61L9,15V16A1,1 0 0,0 10,17H14A1,1 0 0,0 15,16V15L13.5,12.61C14.11,12 14.5,11.16 14.5,10.22L18,11.5L18.5,10.5L13.5,8.82C13,8.9 12.5,9 12,9M4,20A2,2 0 0,0 2,22A2,2 0 0,0 4,20M20,20A2,2 0 0,0 18,22A2,2 0 0,0 20,20Z" />
        </g>
    </g>
</svg>
