<svg width="250" height="150" xmlns="http://www.w3.org/2000/svg">
    <rect width="100%" height="100%" fill="#f00e9d" />
    <g opacity="0.7">
        <g transform="translate(77, 27) scale(4)">
            <path fill="#000000" d="M10 20H6V4H13V9H18V12.1L20 10.1V8L14 2H6C4.9 2 4 2.9 4 4V20C4 21.1 4.9 22 6 22H10V20M20.2 13C20.1 13 20 13.1 19.9 13.2L18.9 14.2L20.8 16.1L21.8 15.1C22 14.9 22 14.5 21.8 14.3L20.7 13.2C20.6 13.1 20.4 13 20.2 13M18.2 14.9L12 21.1V23H13.9L20.1 16.8L18.2 14.9Z" />
        </g>
    </g>
</svg>
