<svg width="250" height="150" xmlns="http://www.w3.org/2000/svg">
    <rect width="100%" height="100%" fill="#8B4513" />
    <g opacity="0.7">
        <g transform="translate(77, 27) scale(4)">
            <path fill="#000000" d="M12,2A10,10 0 0,0 2,12A10,10 0 0,0 12,22A10,10 0 0,0 22,12A10,10 0 0,0 12,2M11,16.92C6.93,16.5 3.5,13.07 3.08,9H6.06C6.5,11.28 8.5,13.11 11,13.43V16.92M13,16.92V13.43C15.5,13.11 17.5,11.28 17.94,9H20.92C20.5,13.07 17.07,16.5 13,16.92M13,7.08V5.08C17.07,5.5 20.5,8.93 20.92,13H17.94C17.5,10.72 15.5,8.89 13,8.57V7.08M11,7.08V8.57C8.5,8.89 6.5,10.72 6.06,13H3.08C3.5,8.93 6.93,5.5 11,5.08V7.08Z"/>
        </g>
    </g>
</svg>
