<svg width="250" height="150" xmlns="http://www.w3.org/2000/svg">
    <rect width="100%" height="100%" fill="#3e3d9b" />
    <g opacity="0.7">
        <g transform="translate(77, 27) scale(4)">
            <path fill="#ffffff" d="M12,3A4,4 0 0,1 16,7C16,9.21 12,14 12,14C12,14 8,9.21 8,7A4,4 0 0,1 12,3M12,1A6,6 0 0,0 6,7C6,10.31 12,17 12,17C12,17 18,10.31 18,7A6,6 0 0,0 12,1M12,5A2,2 0 0,0 10,7A2,2 0 0,0 12,9A2,2 0 0,0 14,7A2,2 0 0,0 12,5M6,19C6,17.89 8.67,17 12,17C15.33,17 18,17.89 18,19V20H6V19Z" />
        </g>
    </g>
</svg>
