<svg width="250" height="150" xmlns="http://www.w3.org/2000/svg">
    <rect width="100%" height="100%" fill="#57d313" />
    <g opacity="0.7">
        <g transform="translate(77, 27) scale(4)">
            <path fill="#ffffff" d="M7 14c-1.66 0-3 1.34-3 3s1.34 3 3 3 3-1.34 3-3-1.34-3-3-3zm13.71-9.37l-1.34-1.34a.9959.9959 0 00-1.41 0L14 7.24V5c0-1.1-.9-2-2-2h-4c-1.1 0-2 .9-2 2v2.24L4.63 10.61a.9959.9959 0 000 1.41l1.34 1.34c.39.39 1.02.39 1.41 0L11 9.41V12c0 1.1.9 2 2 2h4c1.1 0 2-.9 2-2V7.41l3.37-3.38c.39-.39.39-1.02 0-1.41zM17 10c-.55 0-1-.45-1-1s.45-1 1-1 1 .45 1 1-.45 1-1 1zm-4 0c-.55 0-1-.45-1-1s.45-1 1-1 1 .45 1 1-.45 1-1 1z"/>
        </g>
    </g>
</svg>
