<svg viewBox="0 0 24 24" xmlns="http://www.w3.org/2000/svg">
    <g fill="none" stroke="#A0AEC0" stroke-width="1.5" stroke-linecap="round" stroke-linejoin="round">
        <path d="M12,2A10,10 0 0,0 2,12A10,10 0 0,0 12,22A10,10 0 0,0 22,12A10,10 0 0,0 12,2M12,4A8,8 0 0,1 20,12A8,8 0 0,1 12,20C8.16,20 5.15,17.5 4.31,14H6.35C7.11,16.39 9.36,18 12,18C15.31,18 18,15.31 18,12C18,10.12 17.14,8.47 15.89,7.45L17.3,6.04C18.9,7.43 20,9.57 20,12C20,16.42 16.42,20 12,20C7.58,20 4,16.42 4,12C4,9.11 5.64,6.66 8,5.17V8H10V4.31C10.61,4.11 11.28,4 12,4Z" />
    </g>
</svg>