<svg viewBox="0 0 24 24" xmlns="http://www.w3.org/2000/svg">
    <g fill="none" stroke="#A0AEC0" stroke-width="1.5" stroke-linecap="round" stroke-linejoin="round">
        <path d="M12,2C6.47,2 2,6.47 2,12C2,17.53 6.47,22 12,22C17.53,22 22,17.53 22,12C22,6.47 17.53,2 12,2M10.36,19.64C7.83,18.29 6,15.38 6,12C6,8.62 7.83,5.71 10.36,4.36C10.88,5.43 11,6.61 11,7.81C11,10.64 9.5,13.17 7.5,14.69C8.36,16.75 9.13,18.43 10.36,19.64M12,20C11.5,18.05 11,15.89 11,13.6C11,11.3 11.5,9.14 12,7.2C12.5,9.14 13,11.3 13,13.6C13,15.89 12.5,18.05 12,20M13.64,19.64C16.17,18.29 18,15.38 18,12C18,8.62 16.17,5.71 13.64,4.36C13.12,5.43 13,6.61 13,7.81C13,10.64 14.5,13.17 16.5,14.69C15.64,16.75 14.87,18.43 13.64,19.64Z"/>
    </g>
</svg>