<svg viewBox="0 0 400 300" xmlns="http://www.w3.org/2000/svg">
    <rect width="100%" height="100%" fill="#2d3436" />
    <defs>
        <g id="rabbit">
            <path d="M 2 10 C 2 5, 6 2, 8 2 C 10 2, 10 6, 10 6 C 10 2, 14 2, 14 6 C 14 10, 10 12, 8 16 C 6 20, 2 18, 2 14 Z" />
        </g>
    </defs>

    <!-- Command Tent -->
    <g transform="translate(200, 150)">
        <path d="M -150 80 L 0 -80 L 150 80 Z" fill="#4A5568" stroke="#718096" stroke-width="2"/>
        <path d="M 0 -80 V 80" stroke="#718096" stroke-width="2" />
        <!-- Tent Opening -->
        <path d="M 0 80 C 20 60, 20 -40, 0 -60 C -20 -40, -20 60, 0 80" fill="#2d3436" />
        
        <!-- Concord Symbol -->
        <g transform="translate(0, -50) scale(1.5)" fill="#4299E1" opacity="0.5">
            <path d="M12,1L3,5V11C3,16.55 6.84,21.74 12,23C17.16,21.74 21,16.55 21,11V5L12,1Z" />
        </g>
    </g>

    <!-- Rabbits -->
    <g fill="#F7FAFC" opacity="0.9">
        <use href="#rabbit" transform="translate(190, 130) scale(2.5)" />
        <use href="#rabbit" transform="translate(150, 140) scale(2.2) rotate(-10)" />
        <use href="#rabbit" transform="translate(230, 145) scale(2.3) rotate(15)" />
        <use href="#rabbit" transform="translate(110, 160) scale(2) rotate(-20)" />
        <use href="#rabbit" transform="translate(270, 165) scale(2.1) rotate(25)" />
        <use href="#rabbit" transform="translate(70, 180) scale(1.8) rotate(-30)" />
        <use href="#rabbit" transform="translate(310, 185) scale(1.9) rotate(35)" />
    </g>
</svg>