<svg viewBox="0 0 300 400" xmlns="http://www.w3.org/2000/svg">
    <rect width="100%" height="100%" fill="#f7fafc" />
    <defs>
        <g id="gear">
            <path d="M 0 -20 A 20 20 0 0 1 0 20 A 20 20 0 0 1 0 -20 M -2, -22 h 4 v -4 h -4 z M 19,-10 h 4 v 4 h -4 z M 19,6 h 4 v 4 h -4 z M -2, 18 h 4 v 4 h -4 z M -21,6 h -4 v 4 h 4 z M -21,-10 h -4 v 4 h 4 z" fill="#718096" />
            <circle cx="0" cy="0" r="5" fill="#f7fafc" stroke="#2d3748" stroke-width="1"/>
        </g>
    </defs>
    
    <g transform="translate(150, 200)">
        <!-- Halo -->
        <circle cx="0" cy="-80" r="40" fill="none" stroke="#2d3748" stroke-width="2" stroke-dasharray="5 3"/>
        <g transform="translate(0, -80)">
            <line y1="-30" y2="-50" stroke="#2d3748" stroke-width="1" />
            <line y1="30" y2="50" stroke="#2d3748" stroke-width="1" />
            <line x1="-30" x2="-50" stroke="#2d3748" stroke-width="1" />
            <line x1="30" x2="50" stroke="#2d3748" stroke-width="1" />
        </g>
        
        <!-- Head -->
        <circle cx="0" cy="-80" r="25" fill="#e2e8f0" stroke="#718096" stroke-width="1.5"/>
        <use href="#gear" transform="translate(0, -80) scale(0.5)" />
        
        <!-- Torso -->
        <rect x="-40" y="-50" width="80" height="100" rx="10" fill="#e2e8f0" stroke="#718096" stroke-width="1.5"/>
        <use href="#gear" transform="translate(0, 0) scale(1.5)" />
        <use href="#gear" transform="translate(-25, -25) scale(0.8)" />
        <use href="#gear" transform="translate(25, 25) scale(0.8)" />
        
        <!-- Arms -->
        <rect x="-70" y="-45" width="25" height="80" rx="5" fill="#e2e8f0" stroke="#718096" stroke-width="1.5" />
        <rect x="45" y="-45" width="25" height="80" rx="5" fill="#e2e8f0" stroke="#718096" stroke-width="1.5" />
        <use href="#gear" transform="translate(-57.5, -5) scale(0.6)" />
        <use href="#gear" transform="translate(57.5, -5) scale(0.6)" />

        <!-- Legs -->
        <rect x="-35" y="55" width="25" height="100" rx="5" fill="#e2e8f0" stroke="#718096" stroke-width="1.5" />
        <rect x="10" y="55" width="25" height="100" rx="5" fill="#e2e8f0" stroke="#718096" stroke-width="1.5" />
    </g>
</svg>