<svg viewBox="0 0 300 200" xmlns="http://www.w3.org/2000/svg">
    <rect width="100%" height="100%" fill="#1a1a1a" />
    <defs>
        <filter id="oracle_glow">
            <feGaussianBlur stdDeviation="2" result="coloredBlur"/>
            <feMerge>
                <feMergeNode in="coloredBlur"/>
                <feMergeNode in="SourceGraphic"/>
            </feMerge>
        </filter>
    </defs>
    
    <g transform="translate(150, 100)" stroke="#A0AEC0" stroke-width="2">
        <!-- Scale Beam -->
        <line x1="-100" y1="-50" x2="100" y2="-50" />
        <line x1="0" y1="-50" x2="0" y2="-80" />
        
        <!-- Left Pan (Key) -->
        <g transform="translate(-75, 0)">
            <line x1="0" y1="-50" x2="0" y2="-10" />
            <path d="M -30 0 C -30 20, 30 20, 30 0 Z" fill="none" />
            <g fill="#D69E2E" stroke="#D69E2E" filter="url(#oracle_glow)">
                <circle cx="0" cy="-45" r="8" />
                <rect x="-2" y="-37" width="4" height="25" />
                <rect x="-6" y="-12" width="12" height="4" />
                <rect x="-2" y="-12" width="4" height="8" />
            </g>
        </g>

        <!-- Right Pan (Heart) -->
        <g transform="translate(75, 0)">
            <line x1="0" y1="-50" x2="0" y2="-10" />
            <path d="M -30 0 C -30 20, 30 20, 30 0 Z" fill="none" />
            <g fill="#E53E3E" stroke="#E53E3E" filter="url(#oracle_glow)">
                <path d="M 0 -45 C -15 -60, -20 -40, 0 -30 C 20 -40, 15 -60, 0 -45 Z" />
            </g>
        </g>
    </g>
</svg>