<svg viewBox="0 0 100 100" xmlns="http://www.w3.org/2000/svg">
    <rect width="100" height="100" fill="#1a1a1a" />
    <defs>
        <filter id="somnus_glow">
            <feGaussianBlur stdDeviation="1.5" result="coloredBlur"/>
            <feMerge>
                <feMergeNode in="coloredBlur"/>
                <feMergeNode in="SourceGraphic"/>
            </feMerge>
        </filter>
    </defs>
    
    <g transform="translate(50, 50)" filter="url(#somnus_glow)">
        <!-- Eye -->
        <path d="M -30 0 C -15 -20, 15 -20, 30 0 C 15 20, -15 20, -30 0 Z" fill="none" stroke="#A0AEC0" stroke-width="2" />
        <circle cx="0" cy="0" r="10" fill="none" stroke="#A0AEC0" stroke-width="1.5" />
        <circle cx="0" cy="0" r="4" fill="#A0AEC0" />
        
        <!-- Tear -->
        <path d="M 0 15 C 0 20, -5 25, 0 30 C 5 25, 0 20, 0 15 Z" fill="#63B3ED" />
        
        <!-- Lotus -->
        <g transform="translate(0, 45)">
            <path d="M 0 0 C -10 5, -15 15, 0 20 C 15 15, 10 5, 0 0 Z" fill="#D6BCFA" />
            <path d="M -5 5 C -15 10, -10 20, -2 15 Z" fill="#D6BCFA" opacity="0.8" />
            <path d="M 5 5 C 15 10, 10 20, 2 15 Z" fill="#D6BCFA" opacity="0.8" />
        </g>
    </g>
</svg>