<svg xmlns="http://www.w3.org/2000/svg" viewBox="0 0 200 300" width="400" height="600" style="background-color:#1a1a1a;">
    <defs>
        <style>
            .sefirot-circle { fill: #333; stroke: #888; stroke-width: 0.5; }
            .sefirot-text { font-family: sans-serif; font-size: 4px; fill: #ddd; text-anchor: middle; }
            .path-line { stroke: #666; stroke-width: 0.3; }
            .daat-circle { fill: none; stroke: #666; stroke-width: 0.5; stroke-dasharray: 1,1; }
        </style>
    </defs>
    
    <!-- Paths -->
    <line class="path-line" x1="100" y1="20" x2="70" y2="40" />
    <line class="path-line" x1="100" y1="20" x2="130" y2="40" />
    <line class="path-line" x1="100" y1="20" x2="100" y2="100" />
    <line class="path-line" x1="70" y1="40" x2="130" y2="40" />
    <line class="path-line" x1="70" y1="40" x2="70" y2="80" />
    <line class="path-line" x1="70" y1="40" x2="100" y2="100" />
    <line class="path-line" x1="130" y1="40" x2="130" y2="80" />
    <line class="path-line" x1="130" y1="40" x2="100" y2="100" />
    <line class="path-line" x1="70" y1="80" x2="130" y2="80" />
    <line class="path-line" x1="70" y1="80" x2="70" y2="120" />
    <line class="path-line" x1="70" y1="80" x2="100" y2="100" />
    <line class="path-line" x1="130" y1="80" x2="130" y2="120" />
    <line class="path-line" x1="130" y1="80" x2="100" y2="100" />
    <line class="path-line" x1="70" y1="120" x2="100" y2="100" />
    <line class="path-line" x1="70" y1="120" x2="130" y2="120" />
    <line class="path-line" x1="70" y1="120" x2="100" y2="160" />
    <line class="path-line" x1="130" y1="120" x2="100" y2="100" />
    <line class="path-line" x1="130" y1="120" x2="100" y2="160" />
    <line class="path-line" x1="100" y1="100" x2="100" y2="160" />
    <line class="path-line" x1="70" y1="120" x2="70" y2="180" />
    <line class="path-line" x1="130" y1="120" x2="130" y2="180" />
    <line class="path-line" x1="70" y1="180" x2="100" y2="160" />
    <line class="path-line" x1="70" y1="180" x2="130" y2="180" />
    <line class="path-line" x1="130" y1="180" x2="100" y2="160" />
    <line class="path-line" x1="100" y1="160" x2="100" y2="220" />
    <line class="path-line" x1="70" y1="180" x2="100" y2="220" />
    <line class="path-line" x1="130" y1="180" x2="100" y2="220" />
    
    <!-- Sefirot -->
    <circle class="sefirot-circle" cx="100" cy="20" r="10"/>
    <text class="sefirot-text" x="100" y="19">S1</text>
    <text class="sefirot-text" x="100" y="24">Keter</text>
    
    <circle class="sefirot-circle" cx="70" cy="40" r="10"/>
    <text class="sefirot-text" x="70" y="39">S3</text>
    <text class="sefirot-text" x="70" y="44">Binah</text>

    <circle class="sefirot-circle" cx="130" cy="40" r="10"/>
    <text class="sefirot-text" x="130" y="39">S2</text>
    <text class="sefirot-text" x="130" y="44">Chokmah</text>
    
    <circle class="daat-circle" cx="100" cy="65" r="8"/>
    <text class="sefirot-text" x="100" y="64" style="fill:#888;">SX</text>
    <text class="sefirot-text" x="100" y="69" style="fill:#888;">Da'at</text>

    <circle class="sefirot-circle" cx="70" cy="80" r="10"/>
    <text class="sefirot-text" x="70" y="79">S5</text>
    <text class="sefirot-text" x="70" y="84">Gevurah</text>

    <circle class="sefirot-circle" cx="130" cy="80" r="10"/>
    <text class="sefirot-text" x="130" y="79">S4</text>
    <text class="sefirot-text" x="130" y="84">Chesed</text>

    <circle class="sefirot-circle" cx="100" cy="100" r="10"/>
    <text class="sefirot-text" x="100" y="99">S6</text>
    <text class="sefirot-text" x="100" y="104">Tiferet</text>

    <circle class="sefirot-circle" cx="70" cy="120" r="10"/>
    <text class="sefirot-text" x="70" y="119">S8</text>
    <text class="sefirot-text" x="70" y="124">Hod</text>

    <circle class="sefirot-circle" cx="130" cy="120" r="10"/>
    <text class="sefirot-text" x="130" y="119">S7</text>
    <text class="sefirot-text" x="130" y="124">Netzach</text>
    
    <circle class="sefirot-circle" cx="100" cy="160" r="10"/>
    <text class="sefirot-text" x="100" y="159">S9</text>
    <text class="sefirot-text" x="100" y="164">Yesod</text>
    
    <circle class="sefirot-circle" cx="100" cy="220" r="10"/>
    <text class="sefirot-text" x="100" y="219">S10</text>
    <text class="sefirot-text" x="100" y="224">Malkuth</text>
</svg>