<svg viewBox="0 0 400 300" xmlns="http://www.w3.org/2000/svg">
    <rect width="100%" height="100%" fill="#111118" />
    <defs>
        <filter id="magic_glow">
            <feGaussianBlur stdDeviation="3.5" result="coloredBlur"/>
            <feMerge>
                <feMergeNode in="coloredBlur"/>
                <feMergeNode in="SourceGraphic"/>
            </feMerge>
        </filter>
        <radialGradient id="scribe_aura" cx="50%" cy="50%" r="50%">
            <stop offset="0%" stop-color="#63B3ED" stop-opacity="0.5"/>
            <stop offset="100%" stop-color="#63B3ED" stop-opacity="0"/>
        </radialGradient>
    </defs>
    
    <!-- Scribe Figure -->
    <g transform="translate(80, 100)">
        <circle cx="0" cy="0" r="80" fill="url(#scribe_aura)" />
        <path d="M 0 -40 C -30 -30, -50 20, -20 60 L 20 60 C 50 20, 30 -30, 0 -40 Z" fill="#E2E8F0" opacity="0.9" />
        <circle cx="0" cy="-25" r="15" fill="#111118" />
        <path d="M -30 20 L -40 70 M 30 20 L 40 70" fill="none" stroke="#E2E8F0" stroke-width="3" />
    </g>

    <!-- The "Name" being Un-named -->
    <g transform="translate(280, 150)" filter="url(#magic_glow)" opacity="0.9">
        <!-- Central Glyph -->
        <path d="M 0 -50 L 10 -30 L -10 -30 Z" fill="#63B3ED"/>
        <rect x="-30" y="-35" width="60" height="70" rx="5" fill="none" stroke="#63B3ED" stroke-width="3" />
        
        <!-- Fracturing lines -->
        <path d="M 0 0 L -40 -60 M 0 0 L 50 -50 M 0 0 L 60 20 M 0 0 L -50 50 M 0 0 L 20 60" fill="none" stroke="#E2E8F0" stroke-width="1.5" stroke-dasharray="5 5" />

        <!-- Dissolving Particles -->
        <circle cx="35" cy="-40" r="2" fill="#E2E8F0" />
        <circle cx="50" cy="30" r="1.5" fill="#E2E8F0" />
        <circle cx="-45" cy="40" r="2.5" fill="#E2E8F0" />
        <circle cx="-30" cy="-50" r="1" fill="#E2E8F0" />
        <animateTransform attributeName="transform" type="translate" values="0 0; 5 5; -5 5; 0 0" dur="5s" repeatCount="indefinite"/>
    </g>
</svg>